# This file uses centimeters as units for non-parametric coordinates.

mtllib barrel_1.mtl
g default
v 0.574544 0.044219 -0.181219
v 0.490682 0.044219 -0.345806
v 0.360065 0.044219 -0.476425
v 0.195477 0.044219 -0.560286
v 0.013030 0.044219 -0.589183
v -0.169417 0.044219 -0.560286
v -0.334004 0.044219 -0.476424
v -0.464622 0.044219 -0.345806
v -0.548484 0.044219 -0.181219
v -0.577380 0.044219 0.001228
v -0.548484 0.044219 0.183675
v -0.464622 0.044219 0.348262
v -0.334004 0.044219 0.478880
v -0.169417 0.044219 0.562741
v 0.013030 0.044219 0.591638
v 0.195477 0.044219 0.562741
v 0.360064 0.044219 0.478880
v 0.490682 0.044219 0.348262
v 0.574544 0.044219 0.183675
v 0.603441 0.044219 0.001228
v 0.630017 0.622307 -0.199243
v 0.537870 0.622307 -0.380091
v 0.394349 0.622307 -0.523612
v 0.213501 0.622307 -0.615759
v 0.013030 0.622307 -0.647510
v -0.187441 0.622307 -0.615759
v -0.368289 0.622307 -0.523612
v -0.511810 0.622307 -0.380091
v -0.603956 0.622307 -0.199243
v -0.635708 0.622307 0.001228
v -0.603956 0.622307 0.201699
v -0.511810 0.622307 0.382547
v -0.368289 0.622307 0.526068
v -0.187441 0.622307 0.618214
v 0.013030 0.622307 0.649966
v 0.213501 0.622307 0.618214
v 0.394349 0.622307 0.526068
v 0.537870 0.622307 0.382546
v 0.630017 0.622307 0.201699
v 0.661768 0.622307 0.001228
v 0.629886 1.420582 -0.199201
v 0.537759 1.420582 -0.380010
v 0.394268 1.420582 -0.523501
v 0.213459 1.420582 -0.615628
v 0.013030 1.420582 -0.647373
v -0.187399 1.420582 -0.615628
v -0.368208 1.420582 -0.523501
v -0.511699 1.420582 -0.380010
v -0.603826 1.420582 -0.199201
v -0.635570 1.420582 0.001228
v -0.603826 1.420582 0.201656
v -0.511699 1.420582 0.382466
v -0.368208 1.420582 0.525957
v -0.187398 1.420582 0.618084
v 0.013030 1.420582 0.649828
v 0.213459 1.420582 0.618084
v 0.394268 1.420582 0.525957
v 0.537759 1.420582 0.382466
v 0.629886 1.420582 0.201656
v 0.661631 1.420582 0.001228
v 0.575484 2.005848 -0.181524
v 0.491482 2.005848 -0.346388
v 0.360646 2.005848 -0.477224
v 0.195783 2.005848 -0.561225
v 0.013030 2.005848 -0.590171
v -0.169722 2.005848 -0.561225
v -0.334585 2.005848 -0.477224
v -0.465422 2.005848 -0.346388
v -0.549423 2.005848 -0.181524
v -0.578368 2.005848 0.001228
v -0.549423 2.005848 0.183980
v -0.465422 2.005848 0.348843
v -0.334585 2.005848 0.479679
v -0.169722 2.005848 0.563681
v 0.013030 2.005848 0.592626
v 0.195782 2.005848 0.563681
v 0.360645 2.005848 0.479679
v 0.491482 2.005848 0.348843
v 0.575483 2.005848 0.183980
v 0.604429 2.005848 0.001228
v 0.013030 0.044219 0.001228
v 0.013030 2.005848 0.001228
v 0.612563 2.051044 -0.193572
v 0.523023 2.051044 -0.369303
v 0.491482 2.051044 -0.346388
v 0.575484 2.051044 -0.181524
v 0.383561 2.051044 -0.508765
v 0.360646 2.051044 -0.477224
v 0.207830 2.051044 -0.598304
v 0.195783 2.051044 -0.561226
v 0.013030 2.051044 -0.629158
v 0.013030 2.051044 -0.590171
v -0.181770 2.051044 -0.598304
v -0.169722 2.051044 -0.561225
v -0.357501 2.051044 -0.508765
v -0.334585 2.051044 -0.477224
v -0.496962 2.051044 -0.369303
v -0.465422 2.051044 -0.346388
v -0.586502 2.051044 -0.193572
v -0.549423 2.051044 -0.181524
v -0.617355 2.051044 0.001228
v -0.578368 2.051044 0.001228
v -0.586502 2.051044 0.196028
v -0.549423 2.051044 0.183980
v -0.496962 2.051044 0.371759
v -0.465422 2.051044 0.348843
v -0.357501 2.051044 0.511220
v -0.334585 2.051044 0.479679
v -0.181770 2.051044 0.600760
v -0.169722 2.051044 0.563681
v 0.013030 2.051044 0.631613
v 0.013030 2.051044 0.592626
v 0.207830 2.051044 0.600760
v 0.195782 2.051044 0.563681
v 0.383561 2.051044 0.511220
v 0.360645 2.051044 0.479679
v 0.523022 2.051044 0.371759
v 0.491482 2.051044 0.348843
v 0.612562 2.051044 0.196028
v 0.575483 2.051044 0.183980
v 0.643415 2.051044 0.001228
v 0.604429 2.051044 0.001228
v 0.574544 0.003624 -0.181219
v 0.490682 0.003624 -0.345806
v 0.523023 0.003624 -0.369303
v 0.612563 0.003624 -0.193572
v 0.360065 0.003624 -0.476425
v 0.383561 0.003624 -0.508765
v 0.195477 0.003624 -0.560286
v 0.207830 0.003624 -0.598304
v 0.013030 0.003624 -0.589183
v 0.013030 0.003624 -0.629158
v -0.169417 0.003624 -0.560286
v -0.181770 0.003624 -0.598304
v -0.334004 0.003624 -0.476424
v -0.357501 0.003624 -0.508765
v -0.464622 0.003624 -0.345806
v -0.496962 0.003624 -0.369303
v -0.548484 0.003624 -0.181219
v -0.586502 0.003624 -0.193572
v -0.577380 0.003624 0.001228
v -0.617355 0.003624 0.001228
v -0.548484 0.003624 0.183675
v -0.586502 0.003624 0.196028
v -0.464622 0.003624 0.348262
v -0.496962 0.003624 0.371759
v -0.334004 0.003624 0.478880
v -0.357501 0.003624 0.511220
v -0.169417 0.003624 0.562741
v -0.181770 0.003624 0.600760
v 0.013030 0.003624 0.591638
v 0.013030 0.003624 0.631613
v 0.195477 0.003624 0.562741
v 0.207830 0.003624 0.600760
v 0.360064 0.003624 0.478880
v 0.383561 0.003624 0.511220
v 0.490682 0.003624 0.348262
v 0.523022 0.003624 0.371759
v 0.574544 0.003624 0.183675
v 0.612562 0.003624 0.196028
v 0.603441 0.003624 0.001228
v 0.643415 0.003624 0.001228
v 0.612563 1.386495 -0.193572
v 0.643415 1.386495 0.001228
v 0.612562 1.386495 0.196028
v 0.523022 1.386495 0.371759
v 0.383561 1.386495 0.511220
v 0.207830 1.386495 0.600760
v 0.013030 1.386495 0.631613
v -0.181770 1.386495 0.600760
v -0.357501 1.386495 0.511220
v -0.496962 1.386495 0.371759
v -0.586502 1.386495 0.196028
v -0.617355 1.386495 0.001228
v -0.586502 1.386495 -0.193572
v -0.496962 1.386495 -0.369303
v -0.357501 1.386495 -0.508765
v -0.181770 1.386495 -0.598304
v 0.013030 1.386495 -0.629158
v 0.207830 1.386495 -0.598304
v 0.383561 1.386495 -0.508765
v 0.523023 1.386495 -0.369303
v 0.523023 1.450700 -0.369303
v 0.383561 1.450700 -0.508765
v 0.207830 1.450700 -0.598304
v 0.013030 1.450700 -0.629158
v -0.181770 1.450700 -0.598304
v -0.357501 1.450700 -0.508765
v -0.496962 1.450700 -0.369303
v -0.586502 1.450700 -0.193572
v -0.617355 1.450700 0.001228
v -0.586502 1.450700 0.196028
v -0.496962 1.450700 0.371759
v -0.357501 1.450700 0.511220
v -0.181770 1.450700 0.600760
v 0.013030 1.450700 0.631613
v 0.207830 1.450700 0.600760
v 0.383561 1.450700 0.511220
v 0.523022 1.450700 0.371759
v 0.612562 1.450700 0.196028
v 0.643415 1.450700 0.001228
v 0.612562 1.450700 -0.193572
v 0.612563 0.589199 -0.193572
v 0.643415 0.589199 0.001228
v 0.612562 0.589199 0.196028
v 0.523022 0.589199 0.371759
v 0.383561 0.589199 0.511220
v 0.207830 0.589199 0.600760
v 0.013030 0.589199 0.631613
v -0.181770 0.589199 0.600760
v -0.357501 0.589199 0.511220
v -0.496962 0.589199 0.371759
v -0.586502 0.589199 0.196028
v -0.617355 0.589199 0.001228
v -0.586502 0.589199 -0.193572
v -0.496962 0.589199 -0.369303
v -0.357501 0.589199 -0.508765
v -0.181770 0.589199 -0.598304
v 0.013030 0.589199 -0.629158
v 0.207830 0.589199 -0.598304
v 0.383561 0.589199 -0.508765
v 0.523023 0.589199 -0.369303
v 0.523023 0.652887 -0.369303
v 0.383561 0.652887 -0.508765
v 0.207830 0.652887 -0.598304
v 0.013030 0.652887 -0.629158
v -0.181770 0.652887 -0.598304
v -0.357501 0.652887 -0.508765
v -0.496962 0.652887 -0.369303
v -0.586502 0.652887 -0.193572
v -0.617355 0.652887 0.001228
v -0.586502 0.652887 0.196028
v -0.496962 0.652887 0.371759
v -0.357501 0.652887 0.511220
v -0.181770 0.652887 0.600760
v 0.013030 0.652887 0.631613
v 0.207830 0.652887 0.600760
v 0.383561 0.652887 0.511220
v 0.523022 0.652887 0.371759
v 0.612562 0.652887 0.196028
v 0.643415 0.652887 0.001228
v 0.612563 0.652887 -0.193572
v -0.182397 1.999450 0.009866
v -0.216518 1.999450 -0.024255
v -0.263128 1.999450 -0.036744
v -0.309738 1.999450 -0.024255
v -0.343859 1.999450 0.009866
v -0.356348 1.999450 0.056476
v -0.343859 1.999450 0.103086
v -0.309738 1.999450 0.137207
v -0.263128 1.999450 0.149696
v -0.216518 1.999450 0.137207
v -0.182397 1.999450 0.103086
v -0.169907 1.999450 0.056476
v -0.263128 2.049026 0.056476
v -0.198541 2.049026 0.019187
v -0.187125 2.044048 0.012596
v -0.182397 2.032031 0.009866
v -0.225839 2.049026 -0.008110
v -0.219248 2.044048 -0.019526
v -0.216518 2.032031 -0.024255
v -0.263128 2.049026 -0.018102
v -0.263128 2.044048 -0.031284
v -0.263128 2.032031 -0.036744
v -0.300416 2.049026 -0.008110
v -0.307008 2.044048 -0.019526
v -0.309738 2.032031 -0.024255
v -0.327714 2.049026 0.019187
v -0.339130 2.044048 0.012596
v -0.343859 2.032031 0.009866
v -0.337706 2.049026 0.056476
v -0.350888 2.044048 0.056476
v -0.356348 2.032031 0.056476
v -0.327714 2.049026 0.093765
v -0.339130 2.044048 0.100356
v -0.343859 2.032031 0.103086
v -0.300416 2.049026 0.121063
v -0.307008 2.044048 0.132479
v -0.309738 2.032031 0.137207
v -0.263128 2.049026 0.131054
v -0.263128 2.044048 0.144236
v -0.263128 2.032031 0.149696
v -0.225839 2.049026 0.121063
v -0.219248 2.044048 0.132479
v -0.216518 2.032031 0.137207
v -0.198541 2.049026 0.093765
v -0.187125 2.044048 0.100356
v -0.182397 2.032031 0.103086
v -0.188550 2.049026 0.056476
v -0.175368 2.044048 0.056476
v -0.169907 2.032031 0.056476
vt 0.796633 0.022545
vt 0.846053 0.022545
vt 0.846053 0.035585
vt 0.796633 0.035585
vt 0.895474 0.022545
vt 0.895473 0.035585
vt 0.944949 0.022600
vt 0.944836 0.035585
vt 0.994393 0.022467
vt 0.994393 0.035585
vt 0.005902 0.022482
vt 0.055399 0.022610
vt 0.055336 0.035585
vt 0.005902 0.035585
vt 0.104744 0.022545
vt 0.104743 0.035585
vt 0.154164 0.022545
vt 0.154164 0.035585
vt 0.203585 0.022545
vt 0.203585 0.035585
vt 0.253005 0.022545
vt 0.253005 0.035585
vt 0.302426 0.022545
vt 0.302426 0.035585
vt 0.351846 0.022545
vt 0.351847 0.035585
vt 0.401267 0.022545
vt 0.401267 0.035585
vt 0.450688 0.022545
vt 0.450688 0.035585
vt 0.500109 0.022545
vt 0.500109 0.035585
vt 0.549529 0.022545
vt 0.549529 0.035585
vt 0.598950 0.022545
vt 0.598950 0.035585
vt 0.648371 0.022545
vt 0.648371 0.035585
vt 0.697791 0.022545
vt 0.697791 0.035585
vt 0.747212 0.022545
vt 0.747212 0.035585
vt 0.846053 0.188908
vt 0.796633 0.188908
vt 0.895474 0.188908
vt 0.944895 0.188908
vt 0.994393 0.188908
vt 0.055322 0.188908
vt 0.005902 0.188908
vt 0.104743 0.188908
vt 0.154164 0.188908
vt 0.203585 0.188908
vt 0.253005 0.188908
vt 0.302426 0.188908
vt 0.351847 0.188908
vt 0.401267 0.188908
vt 0.450688 0.188908
vt 0.500109 0.188908
vt 0.549529 0.188908
vt 0.598950 0.188908
vt 0.648371 0.188908
vt 0.697791 0.188908
vt 0.747212 0.188908
vt 0.796633 0.205846
vt 0.846053 0.205846
vt 0.846053 0.400955
vt 0.796633 0.400955
vt 0.895474 0.205846
vt 0.895474 0.400955
vt 0.944895 0.205846
vt 0.944895 0.400955
vt 0.994393 0.205846
vt 0.994393 0.400955
vt 0.005902 0.205846
vt 0.055322 0.205846
vt 0.055322 0.400955
vt 0.005902 0.400955
vt 0.104743 0.205846
vt 0.104743 0.400955
vt 0.154164 0.205846
vt 0.154164 0.400955
vt 0.203585 0.205846
vt 0.203585 0.400955
vt 0.253005 0.205846
vt 0.253005 0.400955
vt 0.302426 0.205846
vt 0.302426 0.400955
vt 0.351847 0.205846
vt 0.351847 0.400955
vt 0.401267 0.205846
vt 0.401267 0.400955
vt 0.450688 0.205846
vt 0.450688 0.400955
vt 0.500109 0.205846
vt 0.500109 0.400955
vt 0.549529 0.205846
vt 0.549529 0.400955
vt 0.598950 0.205846
vt 0.598950 0.400955
vt 0.648371 0.205846
vt 0.648371 0.400955
vt 0.697791 0.205846
vt 0.697791 0.400955
vt 0.747212 0.205846
vt 0.747212 0.400955
vt 0.796632 0.570002
vt 0.846050 0.570014
vt 0.846051 0.583122
vt 0.796633 0.583132
vt 0.895453 0.570007
vt 0.895451 0.583154
vt 0.944768 0.569903
vt 0.944790 0.583330
vt 0.994393 0.570054
vt 0.994393 0.583577
vt 0.005902 0.569952
vt 0.055453 0.569892
vt 0.055428 0.583347
vt 0.005902 0.583577
vt 0.104768 0.570005
vt 0.104746 0.583156
vt 0.154166 0.570015
vt 0.154165 0.583122
vt 0.203584 0.570002
vt 0.203585 0.583132
vt 0.253005 0.570003
vt 0.253005 0.583131
vt 0.302426 0.570003
vt 0.302426 0.583131
vt 0.351847 0.570003
vt 0.351847 0.583131
vt 0.401267 0.570003
vt 0.401267 0.583131
vt 0.450688 0.570003
vt 0.450688 0.583131
vt 0.500109 0.570003
vt 0.500109 0.583131
vt 0.549529 0.570003
vt 0.549529 0.583131
vt 0.598950 0.570003
vt 0.598950 0.583131
vt 0.648371 0.570003
vt 0.648371 0.583131
vt 0.697791 0.570003
vt 0.697791 0.583131
vt 0.747212 0.570003
vt 0.747212 0.583131
vt 0.042580 0.876632
vt 0.020650 0.833592
vt 0.167486 0.785882
vt 0.076737 0.910788
vt 0.119776 0.932718
vt 0.167486 0.940275
vt 0.215196 0.932718
vt 0.258236 0.910788
vt 0.292392 0.876632
vt 0.314322 0.833592
vt 0.321879 0.785882
vt 0.314322 0.738172
vt 0.292392 0.695133
vt 0.258236 0.660976
vt 0.215196 0.639046
vt 0.167486 0.631490
vt 0.119776 0.639046
vt 0.076737 0.660976
vt 0.042580 0.695133
vt 0.020650 0.738172
vt 0.013094 0.785882
vt 0.641036 0.832775
vt 0.619224 0.876157
vt 0.493422 0.785333
vt 0.584937 0.910543
vt 0.541825 0.932494
vt 0.494044 0.940057
vt 0.446264 0.932493
vt 0.403153 0.910542
vt 0.369002 0.876567
vt 0.346810 0.833745
vt 0.338610 0.786567
vt 0.344908 0.738964
vt 0.365046 0.695884
vt 0.397733 0.661151
vt 0.439774 0.638747
vt 0.487298 0.630721
vt 0.535475 0.637863
vt 0.579661 0.659460
vt 0.615474 0.693326
vt 0.639223 0.736404
vt 0.648046 0.784492
vt 0.796633 0.418031
vt 0.846053 0.418031
vt 0.846053 0.599137
vt 0.796633 0.599137
vt 0.895474 0.418031
vt 0.895474 0.599137
vt 0.944895 0.418031
vt 0.944895 0.599137
vt 0.994393 0.418031
vt 0.994393 0.599137
vt 0.055322 0.418031
vt 0.005902 0.418031
vt 0.055322 0.599137
vt 0.005902 0.599137
vt 0.104743 0.418031
vt 0.104743 0.599137
vt 0.154164 0.418031
vt 0.154164 0.599137
vt 0.203585 0.418031
vt 0.203585 0.599137
vt 0.253005 0.418031
vt 0.253005 0.599137
vt 0.302426 0.418031
vt 0.302426 0.599137
vt 0.351847 0.418031
vt 0.351847 0.599137
vt 0.401267 0.418031
vt 0.401267 0.599137
vt 0.450688 0.418031
vt 0.450688 0.599137
vt 0.500109 0.418031
vt 0.500109 0.599137
vt 0.549529 0.418031
vt 0.549529 0.599137
vt 0.598950 0.418031
vt 0.598950 0.599137
vt 0.648371 0.418031
vt 0.648371 0.599137
vt 0.697791 0.418031
vt 0.697791 0.599137
vt 0.747212 0.418031
vt 0.747212 0.599137
vt 0.796633 0.009647
vt 0.846053 0.009647
vt 0.895474 0.009647
vt 0.944895 0.009647
vt 0.994393 0.009647
vt 0.005902 0.009647
vt 0.055322 0.009647
vt 0.104743 0.009647
vt 0.154164 0.009647
vt 0.203585 0.009647
vt 0.253005 0.009647
vt 0.302426 0.009647
vt 0.351846 0.009647
vt 0.401267 0.009647
vt 0.450688 0.009647
vt 0.500109 0.009647
vt 0.549529 0.009647
vt 0.598950 0.009647
vt 0.648371 0.009647
vt 0.697791 0.009647
vt 0.747212 0.009647
vt 0.796633 0.410021
vt 0.747212 0.410021
vt 0.697791 0.410021
vt 0.648371 0.410021
vt 0.598950 0.410021
vt 0.549529 0.410021
vt 0.500109 0.410021
vt 0.450688 0.410021
vt 0.401267 0.410021
vt 0.351847 0.410021
vt 0.302426 0.410021
vt 0.253005 0.410021
vt 0.203585 0.410021
vt 0.154164 0.410021
vt 0.104743 0.410021
vt 0.055322 0.410021
vt 0.005902 0.410021
vt 0.994393 0.410021
vt 0.944895 0.410021
vt 0.895474 0.410021
vt 0.846053 0.410021
vt 0.796633 0.197713
vt 0.747212 0.197713
vt 0.697791 0.197713
vt 0.648371 0.197713
vt 0.598950 0.197713
vt 0.549529 0.197713
vt 0.500109 0.197713
vt 0.450688 0.197713
vt 0.401267 0.197713
vt 0.351847 0.197713
vt 0.302426 0.197713
vt 0.253005 0.197713
vt 0.203585 0.197713
vt 0.154164 0.197713
vt 0.104743 0.197713
vt 0.055322 0.197713
vt 0.005902 0.197713
vt 0.994393 0.197713
vt 0.944895 0.197713
vt 0.895474 0.197713
vt 0.846053 0.197713
vt 0.786076 0.769985
vt 0.770228 0.785932
vt 0.764674 0.776813
vt 0.776706 0.764865
vt 0.748530 0.791819
vt 0.748280 0.781143
vt 0.726796 0.786067
vt 0.731916 0.776697
vt 0.710849 0.770219
vt 0.719969 0.764665
vt 0.704963 0.748521
vt 0.715638 0.748271
vt 0.710714 0.726787
vt 0.720084 0.731908
vt 0.726562 0.710840
vt 0.732117 0.719960
vt 0.748260 0.704954
vt 0.748511 0.715629
vt 0.769994 0.710705
vt 0.764874 0.720075
vt 0.785941 0.726553
vt 0.776821 0.732108
vt 0.791827 0.748251
vt 0.781152 0.748502
vt 0.769023 0.760330
vt 0.760288 0.769044
vt 0.748395 0.748386
vt 0.748365 0.772223
vt 0.736451 0.769015
vt 0.727737 0.760279
vt 0.724558 0.748356
vt 0.727767 0.736442
vt 0.736503 0.727728
vt 0.748425 0.724550
vt 0.760339 0.727758
vt 0.769053 0.736494
vt 0.772232 0.748416
vt 0.773038 0.762669
vt 0.776878 0.748434
vt 0.762595 0.773077
vt 0.748347 0.776869
vt 0.734112 0.773029
vt 0.723704 0.762586
vt 0.719912 0.748338
vt 0.723752 0.734103
vt 0.734195 0.723695
vt 0.748443 0.719903
vt 0.762678 0.723743
vt 0.773086 0.734186
vn -0.633464 -0.745895 0.205825
vn -0.538856 -0.745895 0.391502
vn 0.807589 -0.059387 -0.586748
vn 0.949378 -0.059386 -0.308471
vn -0.391502 -0.745895 0.538856
vn 0.586748 -0.059386 -0.807589
vn -0.205825 -0.745895 0.633464
vn 0.308472 -0.059386 -0.949378
vn 0.000000 -0.745895 0.666063
vn 0.000000 -0.059386 -0.998235
vn 0.205825 -0.745895 0.633464
vn -0.308472 -0.059386 -0.949378
vn 0.391503 -0.745895 0.538857
vn -0.586748 -0.059386 -0.807589
vn 0.538857 -0.745895 0.391502
vn -0.807589 -0.059386 -0.586748
vn 0.633464 -0.745895 0.205825
vn -0.949378 -0.059386 -0.308471
vn 0.666064 -0.745894 0.000000
vn -0.998235 -0.059386 0.000000
vn 0.633464 -0.745895 -0.205825
vn -0.949378 -0.059386 0.308471
vn 0.538856 -0.745895 -0.391502
vn -0.807589 -0.059386 0.586748
vn 0.391502 -0.745895 -0.538857
vn -0.586747 -0.059386 0.807590
vn 0.205825 -0.745894 -0.633465
vn -0.308471 -0.059386 0.949378
vn 0.000000 -0.745894 -0.666064
vn 0.000000 -0.059386 0.998235
vn -0.205825 -0.745894 -0.633465
vn 0.308472 -0.059386 0.949378
vn -0.391503 -0.745894 -0.538858
vn 0.586748 -0.059386 0.807589
vn -0.538858 -0.745894 -0.391504
vn 0.807589 -0.059386 0.586748
vn -0.633465 -0.745894 -0.205825
vn 0.949378 -0.059386 0.308472
vn -0.666065 -0.745894 0.000000
vn 0.998235 -0.059386 0.000001
vn 0.808617 -0.031428 -0.587495
vn 0.950587 -0.031428 -0.308864
vn 0.587495 -0.031428 -0.808617
vn 0.308864 -0.031428 -0.950587
vn 0.000000 -0.031428 -0.999506
vn -0.308865 -0.031428 -0.950587
vn -0.587495 -0.031428 -0.808617
vn -0.808617 -0.031428 -0.587495
vn -0.950587 -0.031428 -0.308864
vn -0.999506 -0.031428 0.000000
vn -0.950587 -0.031428 0.308864
vn -0.808617 -0.031428 0.587495
vn -0.587494 -0.031428 0.808618
vn -0.308864 -0.031428 0.950587
vn 0.000000 -0.031428 0.999506
vn 0.308864 -0.031428 0.950587
vn 0.587495 -0.031428 0.808617
vn 0.808617 -0.031428 0.587495
vn 0.950587 -0.031428 0.308865
vn 0.999506 -0.031428 0.000001
vn 0.950746 0.025539 -0.308916
vn 0.808753 0.025539 -0.587594
vn 0.808761 -0.025124 -0.587600
vn 0.950756 -0.025124 -0.308919
vn 0.587594 0.025539 -0.808753
vn 0.587600 -0.025124 -0.808761
vn 0.308916 0.025539 -0.950746
vn 0.308920 -0.025124 -0.950756
vn 0.000000 0.025539 -0.999674
vn 0.000000 -0.025124 -0.999684
vn -0.308917 0.025539 -0.950746
vn -0.308920 -0.025124 -0.950756
vn -0.587594 0.025539 -0.808753
vn -0.587600 -0.025124 -0.808761
vn -0.808753 0.025539 -0.587593
vn -0.808762 -0.025124 -0.587600
vn -0.950746 0.025539 -0.308916
vn -0.950756 -0.025124 -0.308919
vn -0.999674 0.025539 0.000000
vn -0.999684 -0.025124 0.000000
vn -0.950746 0.025539 0.308916
vn -0.950756 -0.025124 0.308919
vn -0.808753 0.025539 0.587594
vn -0.808762 -0.025124 0.587600
vn -0.587593 0.025539 0.808753
vn -0.587599 -0.025124 0.808762
vn -0.308916 0.025539 0.950746
vn -0.308919 -0.025124 0.950756
vn 0.000000 0.025539 0.999674
vn 0.000000 -0.025124 0.999684
vn 0.308916 0.025539 0.950746
vn 0.308919 -0.025124 0.950756
vn 0.587593 0.025539 0.808753
vn 0.587600 -0.025124 0.808762
vn 0.808753 0.025539 0.587594
vn 0.808761 -0.025124 0.587600
vn 0.950746 0.025539 0.308916
vn 0.950756 -0.025124 0.308920
vn 0.999674 0.025539 0.000001
vn 0.999684 -0.025124 0.000001
vn 0.949535 0.056548 -0.308522
vn 0.807722 0.056548 -0.586845
vn -0.577769 0.699980 0.419774
vn -0.679209 0.699981 0.220687
vn 0.586845 0.056548 -0.807722
vn -0.419772 0.699981 0.577769
vn 0.308522 0.056549 -0.949535
vn -0.220687 0.699983 0.679207
vn 0.000000 0.056549 -0.998400
vn 0.000000 0.699984 0.714158
vn -0.308523 0.056549 -0.949534
vn 0.220688 0.699982 0.679207
vn -0.586845 0.056548 -0.807722
vn 0.419773 0.699982 0.577768
vn -0.807723 0.056549 -0.586845
vn 0.577769 0.699982 0.419772
vn -0.949535 0.056549 -0.308522
vn 0.679207 0.699982 0.220688
vn -0.998400 0.056549 0.000000
vn 0.714159 0.699983 0.000000
vn -0.949535 0.056549 0.308522
vn 0.679207 0.699982 -0.220688
vn -0.807722 0.056548 0.586845
vn 0.577769 0.699981 -0.419774
vn -0.586844 0.056548 0.807723
vn 0.419772 0.699981 -0.577770
vn -0.308522 0.056549 0.949535
vn 0.220687 0.699981 -0.679208
vn 0.000000 0.056549 0.998400
vn 0.000000 0.699982 -0.714160
vn 0.308522 0.056548 0.949535
vn -0.220687 0.699981 -0.679208
vn 0.586845 0.056548 0.807723
vn -0.419773 0.699981 -0.577769
vn 0.807722 0.056548 0.586845
vn -0.577769 0.699980 -0.419774
vn 0.949535 0.056549 0.308523
vn -0.679207 0.699982 -0.220688
vn 0.998400 0.056549 0.000001
vn -0.714161 0.699982 -0.000001
vn 0.000000 -1.000000 0.000000
vn 0.000000 -1.000000 0.000000
vn 0.000000 -1.000000 0.000000
vn 0.000000 -1.000000 0.000000
vn 0.000000 -1.000000 0.000000
vn 0.000000 -1.000000 0.000000
vn 0.000000 -1.000000 0.000000
vn 0.000000 -1.000000 0.000000
vn 0.000000 -1.000000 0.000000
vn 0.000000 -1.000000 0.000000
vn 0.000000 -1.000000 0.000000
vn 0.000000 -1.000000 0.000000
vn 0.000000 -1.000000 0.000000
vn 0.000000 -1.000000 0.000000
vn 0.000000 -1.000000 0.000000
vn 0.000000 -1.000000 0.000000
vn 0.000000 -1.000000 0.000000
vn 0.000000 -1.000000 0.000000
vn 0.000000 -1.000000 0.000000
vn 0.000000 -1.000000 0.000000
vn 0.000000 -1.000000 0.000000
vn 0.000000 1.000000 0.000001
vn 0.000000 1.000000 0.000002
vn 0.000000 1.000000 0.000000
vn 0.000000 1.000000 0.000000
vn 0.000000 1.000000 -0.000001
vn 0.000000 1.000000 0.000000
vn 0.000000 1.000000 0.000000
vn 0.000000 1.000000 0.000001
vn 0.000000 1.000000 -0.000001
vn 0.000000 1.000000 -0.000001
vn 0.000000 1.000000 0.000000
vn 0.000000 1.000000 0.000001
vn 0.000000 1.000000 0.000001
vn 0.000000 1.000000 -0.000001
vn 0.000000 1.000000 0.000000
vn 0.000000 1.000000 0.000000
vn 0.000000 1.000000 0.000001
vn 0.000000 1.000000 0.000001
vn 0.000000 1.000000 0.000000
vn 0.000000 1.000000 0.000000
vn 0.000000 1.000000 0.000000
vn 0.950608 0.030709 -0.308871
vn 0.808635 0.030709 -0.587508
vn 0.587508 0.030709 -0.808635
vn 0.308871 0.030709 -0.950608
vn 0.000000 0.030709 -0.999528
vn -0.308872 0.030709 -0.950608
vn -0.587508 0.030709 -0.808635
vn -0.808635 0.030709 -0.587508
vn -0.950608 0.030709 -0.308871
vn -0.999528 0.030709 0.000000
vn -0.950608 0.030709 0.308871
vn -0.808635 0.030709 0.587508
vn -0.587508 0.030709 0.808636
vn -0.308871 0.030709 0.950608
vn 0.000000 0.030709 0.999528
vn 0.308871 0.030709 0.950608
vn 0.587508 0.030709 0.808635
vn 0.808635 0.030709 0.587508
vn 0.950608 0.030709 0.308872
vn 0.999528 0.030709 0.000001
vn 0.951056 -0.001378 -0.309016
vn 0.999999 -0.001378 0.000001
vn 0.951056 -0.001377 0.309017
vn 0.809016 -0.001377 0.587785
vn 0.587784 -0.001377 0.809016
vn 0.309016 -0.001377 0.951056
vn 0.000000 -0.001377 0.999999
vn -0.309017 -0.001377 0.951056
vn -0.587784 -0.001378 0.809016
vn -0.809016 -0.001378 0.587784
vn -0.951056 -0.001378 0.309016
vn -0.999999 -0.001378 0.000000
vn -0.951056 -0.001377 -0.309016
vn -0.809016 -0.001377 -0.587784
vn -0.587785 -0.001377 -0.809016
vn -0.309017 -0.001377 -0.951056
vn 0.000000 -0.001377 -0.999999
vn 0.309017 -0.001377 -0.951056
vn 0.587785 -0.001377 -0.809016
vn 0.809016 -0.001378 -0.587785
vn 0.951056 -0.000902 -0.309017
vn 1.000000 -0.000902 0.000001
vn 0.951056 -0.000902 0.309017
vn 0.809017 -0.000902 0.587785
vn 0.587785 -0.000902 0.809017
vn 0.309017 -0.000902 0.951056
vn 0.000000 -0.000902 1.000000
vn -0.309017 -0.000902 0.951056
vn -0.587785 -0.000902 0.809017
vn -0.809016 -0.000902 0.587785
vn -0.951056 -0.000901 0.309017
vn -1.000000 -0.000902 0.000000
vn -0.951056 -0.000902 -0.309017
vn -0.809017 -0.000902 -0.587785
vn -0.587785 -0.000902 -0.809017
vn -0.309017 -0.000902 -0.951056
vn 0.000000 -0.000902 -1.000000
vn 0.309017 -0.000902 -0.951056
vn 0.587785 -0.000902 -0.809016
vn 0.809017 -0.000902 -0.587785
vn 0.866024 0.000000 -0.500002
vn 0.499999 0.000000 -0.866026
vn 0.496801 0.112928 -0.860486
vn 0.860485 0.112928 -0.496802
vn 0.000000 0.000000 -1.000000
vn 0.000000 0.112928 -0.993603
vn -0.499999 0.000000 -0.866026
vn -0.496801 0.112928 -0.860486
vn -0.866026 0.000000 -0.500000
vn -0.860485 0.112928 -0.496802
vn -1.000000 0.000000 0.000000
vn -0.993603 0.112928 0.000000
vn -0.866026 0.000000 0.500000
vn -0.860486 0.112928 0.496801
vn -0.499999 0.000000 0.866026
vn -0.496801 0.112928 0.860486
vn 0.000000 0.000000 1.000000
vn 0.000000 0.112928 0.993603
vn 0.499999 0.000000 0.866026
vn 0.496801 0.112928 0.860486
vn 0.866025 0.000000 0.500001
vn 0.860485 0.112928 0.496802
vn 1.000000 0.000000 0.000000
vn 0.993603 0.112928 0.000000
vn 0.112811 0.991479 -0.065133
vn 0.065131 0.991479 -0.112813
vn 0.000000 1.000000 0.000000
vn 0.000000 0.991480 -0.130263
vn -0.065131 0.991480 -0.112811
vn -0.112811 0.991480 -0.065129
vn -0.130263 0.991479 0.000002
vn -0.112811 0.991479 0.065133
vn -0.065132 0.991479 0.112813
vn 0.000000 0.991479 0.130263
vn 0.065131 0.991479 0.112813
vn 0.112811 0.991480 0.065131
vn 0.130263 0.991479 -0.000002
vn 0.627127 0.689650 -0.362069
vn 0.724144 0.689649 0.000001
vn 0.362072 0.689649 -0.627127
vn 0.000000 0.689649 -0.724144
vn -0.362072 0.689650 -0.627126
vn -0.627126 0.689649 -0.362073
vn -0.724143 0.689649 -0.000001
vn -0.627127 0.689649 0.362072
vn -0.362072 0.689650 0.627126
vn 0.000000 0.689649 0.724144
vn 0.362072 0.689650 0.627126
vn 0.627127 0.689650 0.362070
s 1
g barrel_3
usemtl barrel_1:initialShadingGroup
f 123/1/1 124/2/2 125/3/3 126/4/4
f 124/2/2 127/5/5 128/6/6 125/3/3
f 127/5/5 129/7/7 130/8/8 128/6/6
f 129/7/7 131/9/9 132/10/10 130/8/8
f 131/11/9 133/12/11 134/13/12 132/14/10
f 133/12/11 135/15/13 136/16/14 134/13/12
f 135/15/13 137/17/15 138/18/16 136/16/14
f 137/17/15 139/19/17 140/20/18 138/18/16
f 139/19/17 141/21/19 142/22/20 140/20/18
f 141/21/19 143/23/21 144/24/22 142/22/20
f 143/23/21 145/25/23 146/26/24 144/24/22
f 145/25/23 147/27/25 148/28/26 146/26/24
f 147/27/25 149/29/27 150/30/28 148/28/26
f 149/29/27 151/31/29 152/32/30 150/30/28
f 151/31/29 153/33/31 154/34/32 152/32/30
f 153/33/31 155/35/33 156/36/34 154/34/32
f 155/35/33 157/37/35 158/38/36 156/36/34
f 157/37/35 159/39/37 160/40/38 158/38/36
f 159/39/37 161/41/39 162/42/40 160/40/38
f 161/41/39 123/1/1 126/4/4 162/42/40
f 222/43/41 203/44/42 126/4/4 125/3/3
f 221/45/43 222/43/41 125/3/3 128/6/6
f 220/46/44 221/45/43 128/6/6 130/8/8
f 219/47/45 220/46/44 130/8/8 132/10/10
f 218/48/46 219/49/45 132/14/10 134/13/12
f 217/50/47 218/48/46 134/13/12 136/16/14
f 216/51/48 217/50/47 136/16/14 138/18/16
f 215/52/49 216/51/48 138/18/16 140/20/18
f 214/53/50 215/52/49 140/20/18 142/22/20
f 213/54/51 214/53/50 142/22/20 144/24/22
f 212/55/52 213/54/51 144/24/22 146/26/24
f 211/56/53 212/55/52 146/26/24 148/28/26
f 210/57/54 211/56/53 148/28/26 150/30/28
f 209/58/55 210/57/54 150/30/28 152/32/30
f 208/59/56 209/58/55 152/32/30 154/34/32
f 207/60/57 208/59/56 154/34/32 156/36/34
f 206/61/58 207/60/57 156/36/34 158/38/36
f 205/62/59 206/61/58 158/38/36 160/40/38
f 204/63/60 205/62/59 160/40/38 162/42/40
f 203/44/42 204/63/60 162/42/40 126/4/4
f 242/64/61 223/65/62 182/66/63 163/67/64
f 223/65/62 224/68/65 181/69/66 182/66/63
f 224/68/65 225/70/67 180/71/68 181/69/66
f 225/70/67 226/72/69 179/73/70 180/71/68
f 226/74/69 227/75/71 178/76/72 179/77/70
f 227/75/71 228/78/73 177/79/74 178/76/72
f 228/78/73 229/80/75 176/81/76 177/79/74
f 229/80/75 230/82/77 175/83/78 176/81/76
f 230/82/77 231/84/79 174/85/80 175/83/78
f 231/84/79 232/86/81 173/87/82 174/85/80
f 232/86/81 233/88/83 172/89/84 173/87/82
f 233/88/83 234/90/85 171/91/86 172/89/84
f 234/90/85 235/92/87 170/93/88 171/91/86
f 235/92/87 236/94/89 169/95/90 170/93/88
f 236/94/89 237/96/91 168/97/92 169/95/90
f 237/96/91 238/98/93 167/99/94 168/97/92
f 238/98/93 239/100/95 166/101/96 167/99/94
f 239/100/95 240/102/97 165/103/98 166/101/96
f 240/102/97 241/104/99 164/105/100 165/103/98
f 241/104/99 242/64/61 163/67/64 164/105/100
f 83/106/101 84/107/102 85/108/103 86/109/104
f 84/107/102 87/110/105 88/111/106 85/108/103
f 87/110/105 89/112/107 90/113/108 88/111/106
f 89/112/107 91/114/109 92/115/110 90/113/108
f 91/116/109 93/117/111 94/118/112 92/119/110
f 93/117/111 95/120/113 96/121/114 94/118/112
f 95/120/113 97/122/115 98/123/116 96/121/114
f 97/122/115 99/124/117 100/125/118 98/123/116
f 99/124/117 101/126/119 102/127/120 100/125/118
f 101/126/119 103/128/121 104/129/122 102/127/120
f 103/128/121 105/130/123 106/131/124 104/129/122
f 105/130/123 107/132/125 108/133/126 106/131/124
f 107/132/125 109/134/127 110/135/128 108/133/126
f 109/134/127 111/136/129 112/137/130 110/135/128
f 111/136/129 113/138/131 114/139/132 112/137/130
f 113/138/131 115/140/133 116/141/134 114/139/132
f 115/140/133 117/142/135 118/143/136 116/141/134
f 117/142/135 119/144/137 120/145/138 118/143/136
f 119/144/137 121/146/139 122/147/140 120/145/138
f 121/146/139 83/106/101 86/109/104 122/147/140
f 2/148/141 1/149/142 81/150/143
f 3/151/144 2/148/141 81/150/143
f 4/152/145 3/151/144 81/150/143
f 5/153/146 4/152/145 81/150/143
f 6/154/147 5/153/146 81/150/143
f 7/155/148 6/154/147 81/150/143
f 8/156/149 7/155/148 81/150/143
f 9/157/150 8/156/149 81/150/143
f 10/158/151 9/157/150 81/150/143
f 11/159/152 10/158/151 81/150/143
f 12/160/153 11/159/152 81/150/143
f 13/161/154 12/160/153 81/150/143
f 14/162/155 13/161/154 81/150/143
f 15/163/156 14/162/155 81/150/143
f 16/164/157 15/163/156 81/150/143
f 17/165/158 16/164/157 81/150/143
f 18/166/159 17/165/158 81/150/143
f 19/167/160 18/166/159 81/150/143
f 20/168/161 19/167/160 81/150/143
f 1/149/142 20/168/161 81/150/143
f 61/169/162 62/170/163 82/171/164
f 62/170/163 63/172/165 82/171/164
f 63/172/165 64/173/166 82/171/164
f 64/173/166 65/174/167 82/171/164
f 65/174/167 66/175/168 82/171/164
f 66/175/168 67/176/169 82/171/164
f 67/176/169 68/177/170 82/171/164
f 68/177/170 69/178/171 82/171/164
f 69/178/171 70/179/172 82/171/164
f 70/179/172 71/180/173 82/171/164
f 71/180/173 72/181/174 82/171/164
f 72/181/174 73/182/175 82/171/164
f 73/182/175 74/183/176 82/171/164
f 74/183/176 75/184/177 82/171/164
f 75/184/177 76/185/178 82/171/164
f 76/185/178 77/186/179 82/171/164
f 77/186/179 78/187/180 82/171/164
f 78/187/180 79/188/181 82/171/164
f 79/188/181 80/189/182 82/171/164
f 80/189/182 61/169/162 82/171/164
f 202/190/183 183/191/184 84/107/102 83/106/101
f 62/192/163 61/193/162 86/109/104 85/108/103
f 184/194/185 87/110/105 84/107/102 183/191/184
f 63/195/165 62/192/163 85/108/103 88/111/106
f 185/196/186 89/112/107 87/110/105 184/194/185
f 64/197/166 63/195/165 88/111/106 90/113/108
f 186/198/187 91/114/109 89/112/107 185/196/186
f 65/199/167 64/197/166 90/113/108 92/115/110
f 187/200/188 93/117/111 91/116/109 186/201/187
f 66/202/168 65/203/167 92/119/110 94/118/112
f 188/204/189 95/120/113 93/117/111 187/200/188
f 67/205/169 66/202/168 94/118/112 96/121/114
f 189/206/190 97/122/115 95/120/113 188/204/189
f 68/207/170 67/205/169 96/121/114 98/123/116
f 190/208/191 99/124/117 97/122/115 189/206/190
f 69/209/171 68/207/170 98/123/116 100/125/118
f 191/210/192 101/126/119 99/124/117 190/208/191
f 70/211/172 69/209/171 100/125/118 102/127/120
f 192/212/193 103/128/121 101/126/119 191/210/192
f 71/213/173 70/211/172 102/127/120 104/129/122
f 193/214/194 105/130/123 103/128/121 192/212/193
f 72/215/174 71/213/173 104/129/122 106/131/124
f 194/216/195 107/132/125 105/130/123 193/214/194
f 73/217/175 72/215/174 106/131/124 108/133/126
f 195/218/196 109/134/127 107/132/125 194/216/195
f 74/219/176 73/217/175 108/133/126 110/135/128
f 196/220/197 111/136/129 109/134/127 195/218/196
f 75/221/177 74/219/176 110/135/128 112/137/130
f 197/222/198 113/138/131 111/136/129 196/220/197
f 76/223/178 75/221/177 112/137/130 114/139/132
f 198/224/199 115/140/133 113/138/131 197/222/198
f 77/225/179 76/223/178 114/139/132 116/141/134
f 199/226/200 117/142/135 115/140/133 198/224/199
f 78/227/180 77/225/179 116/141/134 118/143/136
f 200/228/201 119/144/137 117/142/135 199/226/200
f 79/229/181 78/227/180 118/143/136 120/145/138
f 201/230/202 121/146/139 119/144/137 200/228/201
f 80/231/182 79/229/181 120/145/138 122/147/140
f 202/190/183 83/106/101 121/146/139 201/230/202
f 61/193/162 80/231/182 122/147/140 86/109/104
f 1/232/142 2/233/141 124/2/2 123/1/1
f 2/233/141 3/234/144 127/5/5 124/2/2
f 3/234/144 4/235/145 129/7/7 127/5/5
f 4/235/145 5/236/146 131/9/9 129/7/7
f 5/237/146 6/238/147 133/12/11 131/11/9
f 6/238/147 7/239/148 135/15/13 133/12/11
f 7/239/148 8/240/149 137/17/15 135/15/13
f 8/240/149 9/241/150 139/19/17 137/17/15
f 9/241/150 10/242/151 141/21/19 139/19/17
f 10/242/151 11/243/152 143/23/21 141/21/19
f 11/243/152 12/244/153 145/25/23 143/23/21
f 12/244/153 13/245/154 147/27/25 145/25/23
f 13/245/154 14/246/155 149/29/27 147/27/25
f 14/246/155 15/247/156 151/31/29 149/29/27
f 15/247/156 16/248/157 153/33/31 151/31/29
f 16/248/157 17/249/158 155/35/33 153/33/31
f 17/249/158 18/250/159 157/37/35 155/35/33
f 18/250/159 19/251/160 159/39/37 157/37/35
f 19/251/160 20/252/161 161/41/39 159/39/37
f 20/252/161 1/232/142 123/1/1 161/41/39
f 164/105/100 163/67/64 41/253/203 60/254/204
f 165/103/98 164/105/100 60/254/204 59/255/205
f 166/101/96 165/103/98 59/255/205 58/256/206
f 167/99/94 166/101/96 58/256/206 57/257/207
f 168/97/92 167/99/94 57/257/207 56/258/208
f 169/95/90 168/97/92 56/258/208 55/259/209
f 170/93/88 169/95/90 55/259/209 54/260/210
f 171/91/86 170/93/88 54/260/210 53/261/211
f 172/89/84 171/91/86 53/261/211 52/262/212
f 173/87/82 172/89/84 52/262/212 51/263/213
f 174/85/80 173/87/82 51/263/213 50/264/214
f 175/83/78 174/85/80 50/264/214 49/265/215
f 176/81/76 175/83/78 49/265/215 48/266/216
f 177/79/74 176/81/76 48/266/216 47/267/217
f 178/76/72 177/79/74 47/267/217 46/268/218
f 179/77/70 178/76/72 46/268/218 45/269/219
f 180/71/68 179/73/70 45/270/219 44/271/220
f 181/69/66 180/71/68 44/271/220 43/272/221
f 182/66/63 181/69/66 43/272/221 42/273/222
f 163/67/64 182/66/63 42/273/222 41/253/203
f 43/272/221 184/194/185 183/191/184 42/273/222
f 44/271/220 185/196/186 184/194/185 43/272/221
f 45/270/219 186/198/187 185/196/186 44/271/220
f 46/268/218 187/200/188 186/201/187 45/269/219
f 47/267/217 188/204/189 187/200/188 46/268/218
f 48/266/216 189/206/190 188/204/189 47/267/217
f 49/265/215 190/208/191 189/206/190 48/266/216
f 50/264/214 191/210/192 190/208/191 49/265/215
f 51/263/213 192/212/193 191/210/192 50/264/214
f 52/262/212 193/214/194 192/212/193 51/263/213
f 53/261/211 194/216/195 193/214/194 52/262/212
f 54/260/210 195/218/196 194/216/195 53/261/211
f 55/259/209 196/220/197 195/218/196 54/260/210
f 56/258/208 197/222/198 196/220/197 55/259/209
f 57/257/207 198/224/199 197/222/198 56/258/208
f 58/256/206 199/226/200 198/224/199 57/257/207
f 59/255/205 200/228/201 199/226/200 58/256/206
f 60/254/204 201/230/202 200/228/201 59/255/205
f 41/253/203 202/190/183 201/230/202 60/254/204
f 42/273/222 183/191/184 202/190/183 41/253/203
f 21/274/223 40/275/224 204/63/60 203/44/42
f 40/275/224 39/276/225 205/62/59 204/63/60
f 39/276/225 38/277/226 206/61/58 205/62/59
f 38/277/226 37/278/227 207/60/57 206/61/58
f 37/278/227 36/279/228 208/59/56 207/60/57
f 36/279/228 35/280/229 209/58/55 208/59/56
f 35/280/229 34/281/230 210/57/54 209/58/55
f 34/281/230 33/282/231 211/56/53 210/57/54
f 33/282/231 32/283/232 212/55/52 211/56/53
f 32/283/232 31/284/233 213/54/51 212/55/52
f 31/284/233 30/285/234 214/53/50 213/54/51
f 30/285/234 29/286/235 215/52/49 214/53/50
f 29/286/235 28/287/236 216/51/48 215/52/49
f 28/287/236 27/288/237 217/50/47 216/51/48
f 27/288/237 26/289/238 218/48/46 217/50/47
f 26/289/238 25/290/239 219/49/45 218/48/46
f 25/291/239 24/292/240 220/46/44 219/47/45
f 24/292/240 23/293/241 221/45/43 220/46/44
f 23/293/241 22/294/242 222/43/41 221/45/43
f 22/294/242 21/274/223 203/44/42 222/43/41
f 22/294/242 23/293/241 224/68/65 223/65/62
f 23/293/241 24/292/240 225/70/67 224/68/65
f 24/292/240 25/291/239 226/72/69 225/70/67
f 25/290/239 26/289/238 227/75/71 226/74/69
f 26/289/238 27/288/237 228/78/73 227/75/71
f 27/288/237 28/287/236 229/80/75 228/78/73
f 28/287/236 29/286/235 230/82/77 229/80/75
f 29/286/235 30/285/234 231/84/79 230/82/77
f 30/285/234 31/284/233 232/86/81 231/84/79
f 31/284/233 32/283/232 233/88/83 232/86/81
f 32/283/232 33/282/231 234/90/85 233/88/83
f 33/282/231 34/281/230 235/92/87 234/90/85
f 34/281/230 35/280/229 236/94/89 235/92/87
f 35/280/229 36/279/228 237/96/91 236/94/89
f 36/279/228 37/278/227 238/98/93 237/96/91
f 37/278/227 38/277/226 239/100/95 238/98/93
f 38/277/226 39/276/225 240/102/97 239/100/95
f 39/276/225 40/275/224 241/104/99 240/102/97
f 40/275/224 21/274/223 242/64/61 241/104/99
f 21/274/223 22/294/242 223/65/62 242/64/61
s 4
f 243/295/243 244/296/244 261/297/245 258/298/246
f 244/296/244 245/299/247 264/300/248 261/297/245
f 245/299/247 246/301/249 267/302/250 264/300/248
f 246/301/249 247/303/251 270/304/252 267/302/250
f 247/303/251 248/305/253 273/306/254 270/304/252
f 248/305/253 249/307/255 276/308/256 273/306/254
f 249/307/255 250/309/257 279/310/258 276/308/256
f 250/309/257 251/311/259 282/312/260 279/310/258
f 251/311/259 252/313/261 285/314/262 282/312/260
f 252/313/261 253/315/263 288/316/264 285/314/262
f 253/315/263 254/317/265 291/318/266 288/316/264
f 254/317/265 243/295/243 258/298/246 291/318/266
f 256/319/267 259/320/268 255/321/269
f 259/320/268 262/322/270 255/321/269
f 262/322/270 265/323/271 255/321/269
f 265/323/271 268/324/272 255/321/269
f 268/324/272 271/325/273 255/321/269
f 271/325/273 274/326/274 255/321/269
f 274/326/274 277/327/275 255/321/269
f 277/327/275 280/328/276 255/321/269
f 280/328/276 283/329/277 255/321/269
f 283/329/277 286/330/278 255/321/269
f 286/330/278 289/331/279 255/321/269
f 289/331/279 256/319/267 255/321/269
f 258/298/246 257/332/280 290/333/281 291/318/266
f 257/332/280 256/319/267 289/331/279 290/333/281
f 256/319/267 257/332/280 260/334/282 259/320/268
f 257/332/280 258/298/246 261/297/245 260/334/282
f 259/320/268 260/334/282 263/335/283 262/322/270
f 260/334/282 261/297/245 264/300/248 263/335/283
f 262/322/270 263/335/283 266/336/284 265/323/271
f 263/335/283 264/300/248 267/302/250 266/336/284
f 265/323/271 266/336/284 269/337/285 268/324/272
f 266/336/284 267/302/250 270/304/252 269/337/285
f 268/324/272 269/337/285 272/338/286 271/325/273
f 269/337/285 270/304/252 273/306/254 272/338/286
f 271/325/273 272/338/286 275/339/287 274/326/274
f 272/338/286 273/306/254 276/308/256 275/339/287
f 274/326/274 275/339/287 278/340/288 277/327/275
f 275/339/287 276/308/256 279/310/258 278/340/288
f 277/327/275 278/340/288 281/341/289 280/328/276
f 278/340/288 279/310/258 282/312/260 281/341/289
f 280/328/276 281/341/289 284/342/290 283/329/277
f 281/341/289 282/312/260 285/314/262 284/342/290
f 283/329/277 284/342/290 287/343/291 286/330/278
f 284/342/290 285/314/262 288/316/264 287/343/291
f 286/330/278 287/343/291 290/333/281 289/331/279
f 287/343/291 288/316/264 291/318/266 290/333/281
